<svg xmlns="http://www.w3.org/2000/svg" viewBox="0 0 1024 1024" role="img" aria-label="MW favicon">
  <defs>
    <radialGradient id="bg" cx="50%" cy="43%" r="72%">
      <stop offset="0%" stop-color="#242426"/>
      <stop offset="100%" stop-color="#060708"/>
    </radialGradient>
    <linearGradient id="m" x1="0" y1="220" x2="0" y2="620" gradientUnits="userSpaceOnUse">
      <stop offset="0" stop-color="#ec202e"/>
      <stop offset="1" stop-color="#800914"/>
    </linearGradient>
    <linearGradient id="w" x1="0" y1="220" x2="0" y2="620" gradientUnits="userSpaceOnUse">
      <stop offset="0" stop-color="#f2f2f2"/>
      <stop offset="1" stop-color="#828286"/>
    </linearGradient>
  </defs>
  <rect x="46" y="46" width="932" height="932" rx="190" fill="url(#bg)"/>
  <g font-family="Georgia, 'DejaVu Serif', serif" font-weight="700" font-size="390">
    <text x="80" y="585" fill="url(#m)">M</text>
    <text x="510" y="585" fill="url(#w)">W</text>
  </g>
  <path d="M75 700 C310 610 650 606 940 685" fill="none" stroke="#fff" stroke-width="13" stroke-linecap="round"/>
  <path d="M120 735 C360 655 660 655 870 710" fill="none" stroke="#fff" stroke-width="6" stroke-linecap="round" opacity=".82"/>
  <g fill="#fff" opacity=".96">
    <polygon points="483,625 565,629 537,679 455,675"/>
    <polygon points="627,628 709,632 681,682 599,678"/>
    <polygon points="771,631 853,635 825,685 743,681"/>
    <polygon points="506,671 588,675 560,725 478,721"/>
    <polygon points="650,674 732,678 704,728 622,724"/>
    <polygon points="794,677 876,681 848,731 766,727"/>
    <polygon points="529,717 611,721 583,771 501,767"/>
    <polygon points="673,720 755,724 727,774 645,770"/>
  </g>
</svg>
